<?xml version="1.0" encoding="UTF-8"?>
<svg id="Layer_1" xmlns="http://www.w3.org/2000/svg" version="1.1" viewBox="0 0 1442 1402">
  <!-- Generator: Adobe Illustrator 30.1.0, SVG Export Plug-In . SVG Version: 2.1.1 Build 136)  -->
  <defs>
    <style>
      .st0 {
        fill: #414141;
      }

      .st1 {
        stroke: #414141;
        stroke-width: 14.4px;
      }

      .st1, .st2 {
        fill: none;
        stroke-miterlimit: 10;
      }

      .st2 {
        stroke: #000;
        stroke-width: 15px;
      }
    </style>
  </defs>
  <path class="st0" d="M622.09,465.54c0-27.85,22.5-50.34,50.34-50.34h50.34c27.85,0,50.34,22.5,50.34,50.34,27.85,0,50.34,22.5,50.34,50.34v352.4c0,27.85-22.5,50.34-50.34,50.34,0,27.85-22.5,50.34-50.34,50.34h-50.34c-27.85,0-50.34-22.5-50.34-50.34-27.85,0-50.34-22.5-50.34-50.34v-352.4c0-27.85,22.5-50.34,50.34-50.34ZM420.72,1120h453.09c111.23,0,201.37-90.15,201.37-201.37s-90.15-201.37-201.37-201.37v-100.69c166.76,0,302.06,135.3,302.06,302.06,0,77.4-29.1,147.88-76.93,201.37h26.59c27.85,0,50.34,22.5,50.34,50.34s-22.5,50.34-50.34,50.34H420.72c-27.85,0-50.34-22.5-50.34-50.34s22.5-50.34,50.34-50.34ZM546.58,1019.31h302.06c13.84,0,25.17,11.33,25.17,25.17s-11.33,25.17-25.17,25.17h-302.06c-13.84,0-25.17-11.33-25.17-25.17s11.33-25.17,25.17-25.17h0Z"/>
  <circle class="st1" cx="405.66" cy="440.96" r="260.04"/>
  <path class="st0" d="M571.31,534.12l-78.1-78.1c-15.41-15.41-38.42-18.41-56.96-9.27l-71.1-71.1v-41.42l-85.37-64.03-42.69,42.69,64.03,85.37h41.42l71.1,71.1c-9.07,18.54-6.14,41.55,9.27,56.96l78.1,78.1c9.74,9.74,25.48,9.74,35.15,0l35.15-35.15c9.67-9.74,9.67-25.48,0-35.15h0ZM458.32,420.26c18.88,0,36.62,7.34,49.96,20.68l12.94,12.94c10.54-4.6,20.54-11.01,29.21-19.68,24.75-24.75,33.15-59.56,25.28-91.18-1.47-6-9-8.07-13.41-3.67l-49.62,49.62-45.29-7.54-7.54-45.29,49.62-49.62c4.4-4.4,2.27-11.94-3.8-13.47-31.62-7.8-66.43.6-91.11,25.28-19.01,19.01-27.95,44.09-27.48,69.1l54.76,54.76c5.4-1.27,11.01-1.93,16.47-1.93h.01ZM389.02,474.96l-37.82-37.82-101.65,101.72c-16.67,16.67-16.67,43.69,0,60.36s43.69,16.67,60.36,0l82.44-82.44c-5.07-13.27-6.6-27.75-3.33-41.82h0ZM279.77,585.01c-8.8,0-16.01-7.2-16.01-16.01s7.14-16.01,16.01-16.01,16.01,7.14,16.01,16.01-7.14,16.01-16.01,16.01Z"/>
  <ellipse class="st2" cx="721" cy="701" rx="705.97" ry="688.02"/>
</svg>