<svg xmlns="http://www.w3.org/2000/svg" xmlns:xlink="http://www.w3.org/1999/xlink" width="18" height="17" viewBox="0 0 18 17">
  <defs>
    <clipPath id="clip-Search_-_Gray">
      <rect width="18" height="17"/>
    </clipPath>
  </defs>
  <g id="Search_-_Gray" data-name="Search  - Gray" clip-path="url(#clip-Search_-_Gray)">
    <path id="search-solid" d="M16.766,14.7l-3.31-3.31a.8.8,0,0,0-.564-.232H12.35a6.9,6.9,0,1,0-1.2,1.2v.541a.8.8,0,0,0,.232.564l3.31,3.31a.794.794,0,0,0,1.125,0l.94-.94A.8.8,0,0,0,16.766,14.7Zm-9.86-3.542a4.25,4.25,0,1,1,4.25-4.25A4.247,4.247,0,0,1,6.906,11.155Z" transform="translate(0.501)" fill="#868686"/>
  </g>
</svg>
